<svg width="21" height="22" viewBox="0 0 21 22" fill="none" xmlns="http://www.w3.org/2000/svg">
<path d="M7.44479 20.6373L9.77479 18.6773C10.1248 18.3773 10.7048 18.3773 11.0548 18.6773L13.3848 20.6373C13.9248 20.9073 14.5848 20.6373 14.7848 20.0573L15.2248 18.7273C15.3348 18.4073 15.2248 17.9373 14.9848 17.6973L12.7148 15.4173C12.5448 15.2573 12.4148 14.9373 12.4148 14.7073V11.8573C12.4148 11.4373 12.7248 11.2373 13.1148 11.3973L18.0248 13.5173C18.7948 13.8473 19.4248 13.4373 19.4248 12.5973V11.3073C19.4248 10.6373 18.9248 9.86727 18.3048 9.60728L12.7148 7.19728C12.6291 7.15329 12.5564 7.08773 12.5038 7.00707C12.4512 6.9264 12.4205 6.83341 12.4148 6.73728V3.73728C12.4148 2.79728 11.7248 1.68728 10.8848 1.25728C10.5848 1.10728 10.2348 1.10728 9.93479 1.25728C9.09479 1.68728 8.40479 2.80728 8.40479 3.74728V6.74728C8.40479 6.92728 8.26478 7.13728 8.10478 7.20728L2.52479 9.61728C1.90479 9.86728 1.40479 10.6373 1.40479 11.3073V12.5973C1.40479 13.4373 2.03479 13.8473 2.80479 13.5173L7.71479 11.3973C8.09479 11.2273 8.41479 11.4373 8.41479 11.8573V14.7073C8.41479 14.9373 8.28479 15.2573 8.12479 15.4173L5.85478 17.6973C5.61478 17.9373 5.50479 18.3973 5.61479 18.7273L6.05478 20.0573C6.23478 20.6373 6.89479 20.9173 7.44479 20.6373V20.6373Z" stroke="black" stroke-width="1.5" stroke-linecap="round" stroke-linejoin="round"/>
</svg>
