<svg width="23" height="22" viewBox="0 0 23 22" fill="none" xmlns="http://www.w3.org/2000/svg">
<path d="M11.4148 20.9473C16.9348 20.9473 21.4148 16.4673 21.4148 10.9473C21.4148 5.42727 16.9348 0.947266 11.4148 0.947266C5.89479 0.947266 1.41479 5.42727 1.41479 10.9473C1.41479 16.4673 5.89479 20.9473 11.4148 20.9473Z" stroke="black" stroke-width="1.5" stroke-linecap="round" stroke-linejoin="round"/>
<path d="M20.5848 6.94715C17.5648 6.28715 14.4348 6.28715 11.4148 6.94715M11.4148 14.9471C13.6248 14.9471 15.4148 13.1571 15.4148 10.9471C15.4148 8.73715 13.6248 6.94715 11.4148 6.94715C9.20479 6.94715 7.41479 8.73715 7.41479 10.9471C7.41479 13.1571 9.20479 14.9471 11.4148 14.9471Z" stroke="black" stroke-width="1.5" stroke-linecap="round" stroke-linejoin="round"/>
<path d="M3.3648 5.00732L3.3848 5.06732C4.3948 7.95732 5.9448 10.6373 7.9548 12.9473M10.2948 20.8873C12.3548 18.6173 13.9048 15.9373 14.8448 13.0273L14.8748 12.9473" stroke="black" stroke-width="1.5" stroke-linecap="round" stroke-linejoin="round"/>
</svg>
