<svg width="25" height="25" viewBox="0 0 25 25" fill="none" xmlns="http://www.w3.org/2000/svg">
<path d="M7.13479 10.5073H6.1948C5.19309 10.5046 4.23316 10.1055 3.52485 9.39721C2.81653 8.6889 2.41743 7.72897 2.41479 6.72727C2.41479 4.64727 4.1148 2.94727 6.1948 2.94727H8.08479C8.83455 2.9499 9.55284 3.24891 10.083 3.77906C10.6132 4.30922 10.9122 5.02751 10.9148 5.77727V18.0473C10.9148 19.0873 10.0648 19.9373 9.02479 19.9373C7.98479 19.9373 7.13479 19.0873 7.13479 18.0473V10.5073Z" stroke="black" stroke-width="1.5" stroke-miterlimit="10" stroke-linecap="round" stroke-linejoin="round"/>
<path d="M6.19479 7.66727C5.94549 7.66727 5.7064 7.56823 5.53011 7.39195C5.35383 7.21566 5.25479 6.97657 5.25479 6.72727C5.25479 6.47796 5.35383 6.23887 5.53011 6.06259C5.7064 5.8863 5.94549 5.78727 6.19479 5.78727M17.6948 10.5073H18.6348C20.7148 10.5073 22.4148 8.80727 22.4148 6.72727C22.4148 4.64727 20.7148 2.94727 18.6348 2.94727H16.7448C15.995 2.9499 15.2767 3.24891 14.7466 3.77906C14.2164 4.30922 13.9174 5.02751 13.9148 5.77727V18.0473C13.9148 19.0873 14.7648 19.9373 15.8048 19.9373C16.8448 19.9373 17.6948 19.0873 17.6948 18.0473V10.5073V10.5073Z" stroke="black" stroke-width="1.5" stroke-miterlimit="10" stroke-linecap="round" stroke-linejoin="round"/>
<path d="M18.6348 7.66735C18.8841 7.66735 19.1232 7.56832 19.2995 7.39203C19.4758 7.21575 19.5748 6.97666 19.5748 6.72735C19.5748 6.47805 19.4758 6.23896 19.2995 6.06267C19.1232 5.88639 18.8841 5.78735 18.6348 5.78735M8.91479 22.9474V19.9474M15.9148 22.9474V19.9474" stroke="black" stroke-width="1.5" stroke-miterlimit="10" stroke-linecap="round" stroke-linejoin="round"/>
</svg>
