<svg width="23" height="22" viewBox="0 0 23 22" fill="none" xmlns="http://www.w3.org/2000/svg">
<path d="M10.1648 1.39733C10.8648 0.807334 11.9948 0.807334 12.6748 1.39733L14.2548 2.74733C14.5548 2.99733 15.1248 3.20733 15.5248 3.20733H17.2248C18.2848 3.20733 19.1548 4.07733 19.1548 5.13733V6.83733C19.1548 7.23733 19.3648 7.79733 19.6148 8.09733L20.9648 9.67733C21.5548 10.3773 21.5548 11.5073 20.9648 12.1873L19.6148 13.7673C19.3648 14.0673 19.1548 14.6273 19.1548 15.0273V16.7273C19.1548 17.7873 18.2848 18.6573 17.2248 18.6573H15.5248C15.1248 18.6573 14.5648 18.8673 14.2648 19.1173L12.6848 20.4673C11.9848 21.0573 10.8548 21.0573 10.1748 20.4673L8.5948 19.1173C8.2948 18.8673 7.7248 18.6573 7.3348 18.6573H5.5848C4.5248 18.6573 3.6548 17.7873 3.6548 16.7273V15.0173C3.6548 14.6273 3.4548 14.0573 3.2048 13.7673L1.8548 12.1773C1.2748 11.4873 1.2748 10.3673 1.8548 9.67733L3.2048 8.08733C3.4548 7.78733 3.6548 7.22733 3.6548 6.83733V5.14733C3.6548 4.08733 4.5248 3.21733 5.5848 3.21733H7.3148C7.7148 3.21733 8.2748 3.00733 8.5748 2.75733L10.1648 1.39733Z" stroke="black" stroke-width="1.5" stroke-linecap="round" stroke-linejoin="round"/>
<path d="M7.91479 14.8873L11.4148 7.00732L14.9148 14.8873" stroke="black" stroke-width="1.5" stroke-linejoin="bevel"/>
<path d="M13.1648 12.2573H9.66479" stroke="black" stroke-width="1.5" stroke-linecap="round" stroke-linejoin="round"/>
</svg>
