<svg width="19" height="22" viewBox="0 0 19 22" fill="none" xmlns="http://www.w3.org/2000/svg">
<path d="M11.4148 4.44727H7.41479M17.4148 5.94727V15.9473C17.4148 19.9473 16.4148 20.9473 12.4148 20.9473H6.41479C2.41479 20.9473 1.41479 19.9473 1.41479 15.9473V5.94727C1.41479 1.94727 2.41479 0.947266 6.41479 0.947266H12.4148C16.4148 0.947266 17.4148 1.94727 17.4148 5.94727Z" stroke="black" stroke-width="1.5" stroke-linecap="round" stroke-linejoin="round"/>
<path d="M9.41481 18.0473C9.82589 18.0473 10.2201 17.884 10.5108 17.5933C10.8015 17.3026 10.9648 16.9084 10.9648 16.4973C10.9648 16.0862 10.8015 15.6919 10.5108 15.4012C10.2201 15.1106 9.82589 14.9473 9.41481 14.9473C9.00372 14.9473 8.60947 15.1106 8.31879 15.4012C8.02811 15.6919 7.86481 16.0862 7.86481 16.4973C7.86481 16.9084 8.02811 17.3026 8.31879 17.5933C8.60947 17.884 9.00372 18.0473 9.41481 18.0473V18.0473Z" stroke="black" stroke-width="1.5" stroke-linecap="round" stroke-linejoin="round"/>
</svg>
